 <svg  version="1.0" xmlns="http://www.w3.org/2000/svg"  width="900.000000pt" height="267.000000pt" viewBox="0 0 900.000000 267.000000"  preserveAspectRatio="xMidYMid meet">  <g transform="translate(0.000000,267.000000) scale(0.100000,-0.100000)" fill="#ffffff" stroke="none"> <path d="M2415 2010 c-5 -8 -9 -139 -6 -217 1 -23 1 -23 180 -23 154 0 180 2 185 16 8 20 8 198 0 218 -5 14 -31 16 -179 16 -103 0 -176 -4 -180 -10z"/> <path d="M6204 2007 c-2 -7 -3 -62 -2 -123 l3 -109 180 0 180 0 0 120 0 120 -178 3 c-141 2 -179 0 -183 -11z"/> <path d="M234 1937 c-2 -7 -3 -80 -2 -162 l3 -150 205 -5 205 -5 5 -475 5 -475 191 -3 c152 -2 194 0 202 11 8 10 13 151 14 478 l3 464 194 3 c123 1 199 6 208 13 10 9 13 49 13 159 0 126 -2 149 -16 154 -9 3 -288 6 -620 6 -485 0 -606 -3 -610 -13z"/> <path d="M4165 1940 c-3 -5 1 -33 9 -62 20 -72 37 -145 46 -193 4 -22 13 -62 20 -90 6 -27 18 -75 25 -105 7 -30 18 -77 25 -105 7 -27 19 -79 27 -115 23 -105 43 -191 59 -255 8 -33 19 -78 23 -100 14 -69 32 -138 49 -195 l17 -55 220 0 220 0 13 40 c8 22 17 63 22 90 4 28 12 70 18 95 6 25 17 77 26 115 8 39 22 106 31 150 9 44 23 105 31 136 8 30 14 72 14 92 0 20 5 39 10 42 16 10 28 -29 66 -210 18 -89 39 -189 59 -280 7 -33 20 -96 30 -140 9 -44 20 -91 23 -105 l7 -25 220 -3 c198 -2 221 -1 232 15 7 9 13 28 13 42 0 13 6 47 14 75 17 63 36 138 47 191 4 22 15 67 23 100 17 71 47 199 90 390 8 33 19 83 26 110 7 28 18 75 25 105 7 30 19 78 25 105 22 88 28 128 23 142 -7 18 -376 19 -391 1 -9 -13 -16 -41 -48 -213 -8 -44 -20 -101 -25 -127 -6 -26 -14 -71 -19 -100 -10 -65 -30 -185 -36 -216 -3 -13 -10 -22 -17 -19 -14 4 -29 52 -52 162 -9 44 -22 107 -30 140 -7 33 -20 94 -28 135 -9 41 -24 113 -35 160 l-19 85 -201 3 -202 2 -6 -27 c-26 -121 -37 -175 -80 -390 -8 -43 -22 -106 -30 -140 -8 -34 -14 -76 -14 -95 0 -18 -4 -40 -10 -48 -14 -23 -28 19 -64 200 -25 129 -44 222 -60 300 -8 41 -18 93 -21 115 -4 22 -13 50 -21 63 -14 22 -18 22 -214 22 -121 0 -201 -4 -205 -10z"/> <path d="M2040 1652 c-56 -27 -97 -60 -120 -97 -12 -19 -25 -33 -30 -30 -4 2 -10 26 -13 52 -3 29 -12 52 -23 60 -22 16 -246 18 -275 3 -18 -10 -19 -26 -19 -480 0 -257 3 -475 6 -484 5 -14 31 -16 184 -16 176 0 178 0 184 23 3 12 6 134 6 270 0 209 3 253 16 280 41 81 80 101 209 107 l100 5 3 150 c2 132 1 151 -15 162 -25 19 -170 15 -213 -5z"/> <path d="M3530 1652 c-59 -23 -98 -49 -137 -91 -18 -19 -35 -32 -39 -28 -4 4 -15 30 -25 59 l-18 53 -143 0 -143 0 0 -675 0 -675 178 -3 177 -2 0 220 c0 153 3 220 11 220 6 0 23 -8 37 -19 75 -52 122 -65 242 -65 109 1 119 3 182 33 104 50 151 110 200 256 28 84 30 341 4 430 -42 139 -103 219 -205 268 -60 29 -76 32 -171 34 -80 2 -116 -2 -150 -15z m101 -275 c19 -12 44 -42 57 -67 19 -38 22 -60 22 -155 -1 -178 -39 -235 -159 -235 -58 0 -71 4 -100 28 -86 72 -98 292 -21 398 40 55 141 71 201 31z"/> <path d="M7290 1652 c-58 -28 -87 -51 -115 -92 -15 -22 -31 -38 -35 -35 -4 3 -10 27 -12 55 -3 28 -8 54 -12 58 -13 12 -262 15 -285 2 -21 -11 -21 -13 -19 -493 l3 -482 181 -3 c181 -2 182 -2 188 20 3 13 6 135 6 271 0 223 2 251 19 285 38 74 79 94 211 102 l95 5 3 150 c2 132 1 151 -15 162 -25 19 -170 15 -213 -5z"/> <path d="M8045 1665 c-5 -1 -30 -8 -55 -15 -108 -29 -182 -72 -246 -142 -39 -42 -55 -70 -91 -158 -27 -66 -26 -312 2 -390 42 -120 123 -210 230 -258 106 -48 146 -54 325 -55 150 0 183 3 235 21 97 33 128 48 173 88 58 49 92 105 109 178 19 85 17 86 -171 86 -83 0 -156 -4 -162 -8 -7 -4 -18 -23 -27 -42 -8 -19 -27 -46 -42 -60 -25 -23 -34 -25 -123 -25 -88 0 -100 2 -130 25 -40 30 -74 102 -70 150 l3 35 350 2 c193 1 358 4 368 7 13 3 17 14 17 48 0 54 -26 210 -38 235 -40 79 -54 100 -95 142 -95 98 -226 141 -427 140 -69 0 -129 -2 -135 -4z m248 -254 c38 -25 69 -77 65 -110 l-3 -26 -173 -3 c-142 -2 -173 0 -178 12 -9 23 34 94 73 121 32 21 49 25 113 25 56 0 82 -5 103 -19z"/> <path d="M2415 1640 c-7 -12 -7 -958 0 -970 4 -6 81 -10 180 -10 148 0 174 2 179 16 8 20 8 938 0 958 -5 14 -31 16 -179 16 -100 0 -176 -4 -180 -10z"/> <path d="M6207 1643 c-10 -9 -8 -956 1 -971 7 -9 50 -12 183 -10 l174 3 5 478 c3 263 1 485 -3 493 -6 11 -42 14 -181 14 -95 0 -176 -3 -179 -7z"/> </g> </svg> 